<svg width="60" height="60" viewBox="0 0 60 60" fill="none" xmlns="http://www.w3.org/2000/svg">
<mask id="path-1-inside-1_61_17" fill="white">
<path d="M17.5781 27.0938H42.4688V29.9062H17.5781V27.0938ZM17.5781 39.4687H32.8125V42.2812H17.5781V39.4687Z"/>
</mask>
<path d="M17.5781 27.0938H42.4688V29.9062H17.5781V27.0938ZM17.5781 39.4687H32.8125V42.2812H17.5781V39.4687Z" fill="white"/>
<path d="M17.5781 27.0938V20.0938H10.5781V27.0938H17.5781ZM42.4688 27.0938H49.4688V20.0938H42.4688V27.0938ZM42.4688 29.9062V36.9062H49.4688V29.9062H42.4688ZM17.5781 29.9062H10.5781V36.9062H17.5781V29.9062ZM17.5781 39.4687V32.4687H10.5781V39.4687H17.5781ZM32.8125 39.4687H39.8125V32.4687H32.8125V39.4687ZM32.8125 42.2812V49.2812H39.8125V42.2812H32.8125ZM17.5781 42.2812H10.5781V49.2812H17.5781V42.2812ZM17.5781 34.0938H42.4688V20.0938H17.5781V34.0938ZM35.4688 27.0938V29.9062H49.4688V27.0938H35.4688ZM42.4688 22.9062H17.5781V36.9062H42.4688V22.9062ZM24.5781 29.9062V27.0938H10.5781V29.9062H24.5781ZM17.5781 46.4687H32.8125V32.4687H17.5781V46.4687ZM25.8125 39.4687V42.2812H39.8125V39.4687H25.8125ZM32.8125 35.2812H17.5781V49.2812H32.8125V35.2812ZM24.5781 42.2812V39.4687H10.5781V42.2812H24.5781Z" fill="white" mask="url(#path-1-inside-1_61_17)"/>
<mask id="path-3-inside-2_61_17" fill="white">
<path d="M47.9531 57.5156H12.0469C11.2969 57.5156 10.5938 57.375 9.89063 57.0938C9.23438 56.8125 8.625 56.4375 8.15625 55.9219C7.64062 55.4062 7.26562 54.8438 6.98437 54.1875C6.70312 53.4844 6.5625 52.7812 6.5625 52.0312V14.6719C6.5625 13.9219 6.70312 13.2188 6.98437 12.5156C7.26562 11.8594 7.64062 11.25 8.15625 10.7812C8.67187 10.2656 9.23438 9.89062 9.89063 9.60938C10.5938 9.32812 11.2969 9.1875 12.0469 9.1875H17.4844V11.9531H12.0469C10.5469 11.9531 9.28125 13.1719 9.28125 14.7188V52.0781C9.28125 53.5781 10.5 54.8438 12.0469 54.8438H47.9062C49.4062 54.8438 50.6719 53.625 50.6719 52.0781V14.6719C50.6719 13.1719 49.4531 11.9062 47.9062 11.9062H42.5156V9.14062H47.9531C48.7031 9.14062 49.4062 9.28125 50.1094 9.5625C50.7656 9.84375 51.375 10.2187 51.8438 10.7344C52.3594 11.25 52.7344 11.8125 53.0156 12.4688C53.2969 13.1719 53.4375 13.875 53.4375 14.625V51.9844C53.4375 52.7344 53.2969 53.4375 53.0156 54.1406C52.7344 54.7969 52.3594 55.4062 51.8438 55.875C51.3281 56.3906 50.7656 56.7656 50.1094 57.0469C49.4062 57.375 48.7031 57.5156 47.9531 57.5156Z"/>
</mask>
<path d="M47.9531 57.5156H12.0469C11.2969 57.5156 10.5938 57.375 9.89063 57.0938C9.23438 56.8125 8.625 56.4375 8.15625 55.9219C7.64062 55.4062 7.26562 54.8438 6.98437 54.1875C6.70312 53.4844 6.5625 52.7812 6.5625 52.0312V14.6719C6.5625 13.9219 6.70312 13.2188 6.98437 12.5156C7.26562 11.8594 7.64062 11.25 8.15625 10.7812C8.67187 10.2656 9.23438 9.89062 9.89063 9.60938C10.5938 9.32812 11.2969 9.1875 12.0469 9.1875H17.4844V11.9531H12.0469C10.5469 11.9531 9.28125 13.1719 9.28125 14.7188V52.0781C9.28125 53.5781 10.5 54.8438 12.0469 54.8438H47.9062C49.4062 54.8438 50.6719 53.625 50.6719 52.0781V14.6719C50.6719 13.1719 49.4531 11.9062 47.9062 11.9062H42.5156V9.14062H47.9531C48.7031 9.14062 49.4062 9.28125 50.1094 9.5625C50.7656 9.84375 51.375 10.2187 51.8438 10.7344C52.3594 11.25 52.7344 11.8125 53.0156 12.4688C53.2969 13.1719 53.4375 13.875 53.4375 14.625V51.9844C53.4375 52.7344 53.2969 53.4375 53.0156 54.1406C52.7344 54.7969 52.3594 55.4062 51.8438 55.875C51.3281 56.3906 50.7656 56.7656 50.1094 57.0469C49.4062 57.375 48.7031 57.5156 47.9531 57.5156Z" fill="white"/>
<path d="M9.89063 57.0938L7.13319 63.5278L7.21164 63.5614L7.29089 63.5931L9.89063 57.0938ZM8.15625 55.9219L13.3358 51.2132L13.2238 51.0899L13.106 50.9721L8.15625 55.9219ZM6.98437 54.1875L0.485038 56.7872L0.516737 56.8665L0.55036 56.9449L6.98437 54.1875ZM6.98437 12.5156L0.55036 9.75819L0.516737 9.83664L0.485038 9.91589L6.98437 12.5156ZM8.15625 10.7812L12.865 15.9608L12.9882 15.8488L13.106 15.731L8.15625 10.7812ZM9.89063 9.60938L7.29089 3.11004L7.21164 3.14174L7.13319 3.17536L9.89063 9.60938ZM17.4844 9.1875H24.4844V2.1875H17.4844V9.1875ZM17.4844 11.9531V18.9531H24.4844V11.9531H17.4844ZM42.5156 11.9062H35.5156V18.9062H42.5156V11.9062ZM42.5156 9.14062V2.14062H35.5156V9.14062H42.5156ZM50.1094 9.5625L52.8668 3.12848L52.7884 3.09486L52.7091 3.06316L50.1094 9.5625ZM51.8438 10.7344L46.6642 15.4431L46.7762 15.5663L46.894 15.6841L51.8438 10.7344ZM53.0156 12.4688L59.515 9.86902L59.4833 9.78977L59.4496 9.71131L53.0156 12.4688ZM53.0156 54.1406L59.4496 56.8981L59.4833 56.8196L59.515 56.7404L53.0156 54.1406ZM51.8438 55.875L47.135 50.6954L47.0118 50.8075L46.894 50.9253L51.8438 55.875ZM50.1094 57.0469L47.3519 50.6129L47.2498 50.6566L47.1492 50.7036L50.1094 57.0469ZM47.9531 50.5156H12.0469V64.5156H47.9531V50.5156ZM12.0469 50.5156C12.1157 50.5156 12.2052 50.5227 12.3023 50.5418C12.3983 50.5607 12.4641 50.5839 12.4904 50.5944L7.29089 63.5931C8.78532 64.1909 10.3688 64.5156 12.0469 64.5156V50.5156ZM12.6481 50.6597C12.6281 50.6512 12.6922 50.6764 12.809 50.7534C12.9285 50.8323 13.1222 50.9782 13.3358 51.2132L2.97667 60.6306C4.32967 62.1189 5.89299 62.9963 7.13319 63.5278L12.6481 50.6597ZM13.106 50.9721C13.1533 51.0194 13.2203 51.096 13.2885 51.1972C13.3563 51.2979 13.3981 51.3826 13.4184 51.4301L0.55036 56.9449C1.17318 58.3982 2.04482 59.7099 3.2065 60.8716L13.106 50.9721ZM13.4837 51.5878C13.4942 51.614 13.5175 51.6798 13.5363 51.7758C13.5554 51.8729 13.5625 51.9624 13.5625 52.0312H-0.4375C-0.4375 53.7093 -0.112726 55.2928 0.485038 56.7872L13.4837 51.5878ZM13.5625 52.0312V14.6719H-0.4375V52.0312H13.5625ZM13.5625 14.6719C13.5625 14.7407 13.5554 14.8302 13.5363 14.9273C13.5175 15.0233 13.4942 15.0891 13.4837 15.1154L0.485038 9.91589C-0.112726 11.4103 -0.4375 12.9938 -0.4375 14.6719H13.5625ZM13.4184 15.2731C13.4269 15.2531 13.4018 15.3172 13.3247 15.434C13.2458 15.5535 13.0999 15.7472 12.865 15.9608L3.44754 5.60167C1.95924 6.95467 1.08187 8.51799 0.55036 9.75819L13.4184 15.2731ZM13.106 15.731C13.0587 15.7783 12.9821 15.8453 12.8809 15.9135C12.7802 15.9813 12.6955 16.0231 12.6481 16.0434L7.13319 3.17536C5.67993 3.79819 4.36818 4.66983 3.2065 5.8315L13.106 15.731ZM12.4904 16.1087C12.4641 16.1192 12.3983 16.1425 12.3023 16.1613C12.2052 16.1804 12.1157 16.1875 12.0469 16.1875V2.1875C10.3688 2.1875 8.7853 2.51227 7.29089 3.11004L12.4904 16.1087ZM12.0469 16.1875H17.4844V2.1875H12.0469V16.1875ZM10.4844 9.1875V11.9531H24.4844V9.1875H10.4844ZM17.4844 4.95312H12.0469V18.9531H17.4844V4.95312ZM12.0469 4.95312C6.7583 4.95312 2.28125 9.22892 2.28125 14.7188H16.2812C16.2812 17.1148 14.3355 18.9531 12.0469 18.9531V4.95312ZM2.28125 14.7188V52.0781H16.2812V14.7188H2.28125ZM2.28125 52.0781C2.28125 57.3667 6.55705 61.8438 12.0469 61.8438V47.8438C14.443 47.8438 16.2812 49.7895 16.2812 52.0781H2.28125ZM12.0469 61.8438H47.9062V47.8438H12.0469V61.8438ZM47.9062 61.8438C53.1948 61.8438 57.6719 57.568 57.6719 52.0781H43.6719C43.6719 49.682 45.6177 47.8438 47.9062 47.8438V61.8438ZM57.6719 52.0781V14.6719H43.6719V52.0781H57.6719ZM57.6719 14.6719C57.6719 9.38329 53.3961 4.90625 47.9062 4.90625V18.9062C45.5102 18.9062 43.6719 16.9605 43.6719 14.6719H57.6719ZM47.9062 4.90625H42.5156V18.9062H47.9062V4.90625ZM49.5156 11.9062V9.14062H35.5156V11.9062H49.5156ZM42.5156 16.1406H47.9531V2.14062H42.5156V16.1406ZM47.9531 16.1406C47.8843 16.1406 47.7948 16.1336 47.6977 16.1145C47.6017 16.0956 47.5359 16.0723 47.5096 16.0618L52.7091 3.06316C51.2147 2.4654 49.6312 2.14062 47.9531 2.14062V16.1406ZM47.3519 15.9965C47.3719 16.0051 47.3078 15.9799 47.191 15.9028C47.0715 15.824 46.8778 15.678 46.6642 15.4431L57.0233 6.02567C55.6703 4.53737 54.107 3.66 52.8668 3.12848L47.3519 15.9965ZM46.894 15.6841C46.8467 15.6369 46.7797 15.5602 46.7115 15.459C46.6437 15.3584 46.6019 15.2736 46.5816 15.2262L59.4496 9.71131C58.8268 8.25805 57.9552 6.9463 56.7935 5.78463L46.894 15.6841ZM46.5163 15.0685C46.5058 15.0422 46.4825 14.9764 46.4637 14.8805C46.4446 14.7834 46.4375 14.6939 46.4375 14.625H60.4375C60.4375 12.9469 60.1127 11.3634 59.515 9.86902L46.5163 15.0685ZM46.4375 14.625V51.9844H60.4375V14.625H46.4375ZM46.4375 51.9844C46.4375 51.9155 46.4446 51.826 46.4637 51.7289C46.4825 51.633 46.5058 51.5672 46.5163 51.5409L59.515 56.7404C60.1127 55.246 60.4375 53.6624 60.4375 51.9844H46.4375ZM46.5816 51.3832C46.5731 51.4031 46.5982 51.339 46.6753 51.2222C46.7542 51.1028 46.9001 50.909 47.135 50.6954L56.5525 61.0546C58.0408 59.7016 58.9181 58.1383 59.4496 56.8981L46.5816 51.3832ZM46.894 50.9253C46.9413 50.878 47.0179 50.8109 47.1191 50.7428C47.2197 50.675 47.3045 50.6332 47.3519 50.6129L52.8668 63.4809C54.3201 62.8581 55.6318 61.9864 56.7935 60.8247L46.894 50.9253ZM47.1492 50.7036C47.2694 50.6475 47.4208 50.594 47.5898 50.558C47.7561 50.5226 47.885 50.5156 47.9531 50.5156V64.5156C49.6448 64.5156 51.3687 64.1839 53.0696 63.3902L47.1492 50.7036Z" fill="white" mask="url(#path-3-inside-2_61_17)"/>
<mask id="path-5-inside-3_61_17" fill="white">
<path d="M43.7813 17.4375H16.2188V8.4375C16.2188 6.51562 17.7656 4.96875 19.6875 4.96875H23.25C24.5156 2.4375 27.1406 0.796875 30.0469 0.796875C32.9531 0.796875 35.5781 2.4375 36.8438 4.96875H40.4062C42.3281 4.96875 43.875 6.51562 43.875 8.4375L43.7813 17.4375ZM18.9844 14.6719H41.0625V8.4375C41.0625 8.0625 40.7344 7.73438 40.3594 7.73438H34.875L34.5469 6.79688C33.8906 4.875 32.0625 3.5625 30 3.5625C27.9375 3.5625 26.1094 4.875 25.4531 6.79688L25.125 7.73438H19.6406C19.2656 7.73438 18.9375 8.0625 18.9375 8.4375V14.6719H18.9844Z"/>
</mask>
<path d="M43.7813 17.4375H16.2188V8.4375C16.2188 6.51562 17.7656 4.96875 19.6875 4.96875H23.25C24.5156 2.4375 27.1406 0.796875 30.0469 0.796875C32.9531 0.796875 35.5781 2.4375 36.8438 4.96875H40.4062C42.3281 4.96875 43.875 6.51562 43.875 8.4375L43.7813 17.4375ZM18.9844 14.6719H41.0625V8.4375C41.0625 8.0625 40.7344 7.73438 40.3594 7.73438H34.875L34.5469 6.79688C33.8906 4.875 32.0625 3.5625 30 3.5625C27.9375 3.5625 26.1094 4.875 25.4531 6.79688L25.125 7.73438H19.6406C19.2656 7.73438 18.9375 8.0625 18.9375 8.4375V14.6719H18.9844Z" fill="white"/>
<path d="M43.7813 17.4375V24.4375H50.7087L50.7809 17.5104L43.7813 17.4375ZM16.2188 17.4375H9.21875V24.4375H16.2188V17.4375ZM23.25 4.96875V11.9688H27.5762L29.511 8.09925L23.25 4.96875ZM36.8438 4.96875L30.5828 8.09925L32.5175 11.9688H36.8438V4.96875ZM43.875 8.4375L50.8746 8.51041L50.875 8.47396V8.4375H43.875ZM41.0625 14.6719V21.6719H48.0625V14.6719H41.0625ZM34.875 7.73438L28.268 10.0468L29.9086 14.7344H34.875V7.73438ZM34.5469 6.79688L27.9224 9.05888L27.9311 9.08415L27.9399 9.10934L34.5469 6.79688ZM25.4531 6.79688L32.0601 9.10933L32.0689 9.08414L32.0776 9.05888L25.4531 6.79688ZM25.125 7.73438V14.7344H30.0914L31.732 10.0468L25.125 7.73438ZM18.9375 14.6719H11.9375V21.6719H18.9375V14.6719ZM43.7813 10.4375H16.2188V24.4375H43.7813V10.4375ZM23.2188 17.4375V8.4375H9.21875V17.4375H23.2188ZM23.2188 8.4375C23.2188 10.3816 21.6316 11.9688 19.6875 11.9688V-2.03125C13.8996 -2.03125 9.21875 2.64963 9.21875 8.4375H23.2188ZM19.6875 11.9688H23.25V-2.03125H19.6875V11.9688ZM29.511 8.09925C29.5869 7.94743 29.7831 7.79688 30.0469 7.79688V-6.20312C24.4981 -6.20312 19.4443 -3.07242 16.989 1.83826L29.511 8.09925ZM30.0469 7.79688C30.3106 7.79688 30.5068 7.94743 30.5828 8.09925L43.1047 1.83826C40.6494 -3.07242 35.5956 -6.20312 30.0469 -6.20312V7.79688ZM36.8438 11.9688H40.4062V-2.03125H36.8438V11.9688ZM40.4062 11.9688C38.4621 11.9688 36.875 10.3816 36.875 8.4375H50.875C50.875 2.64963 46.1941 -2.03125 40.4062 -2.03125V11.9688ZM36.8754 8.36459L36.7816 17.3646L50.7809 17.5104L50.8746 8.51041L36.8754 8.36459ZM18.9844 21.6719H41.0625V7.67187H18.9844V21.6719ZM48.0625 14.6719V8.4375H34.0625V14.6719H48.0625ZM48.0625 8.4375C48.0625 4.1965 44.6004 0.734375 40.3594 0.734375V14.7344C36.8684 14.7344 34.0625 11.9285 34.0625 8.4375H48.0625ZM40.3594 0.734375H34.875V14.7344H40.3594V0.734375ZM41.482 5.42191L41.1539 4.48441L27.9399 9.10934L28.268 10.0468L41.482 5.42191ZM41.1713 4.53487C39.5426 -0.234899 35.0416 -3.4375 30 -3.4375V10.5625C29.0834 10.5625 28.2386 9.9849 27.9224 9.05888L41.1713 4.53487ZM30 -3.4375C24.9584 -3.4375 20.4574 -0.234902 18.8287 4.53487L32.0776 9.05888C31.7614 9.9849 30.9166 10.5625 30 10.5625V-3.4375ZM18.8461 4.48442L18.518 5.42192L31.732 10.0468L32.0601 9.10933L18.8461 4.48442ZM25.125 0.734375H19.6406V14.7344H25.125V0.734375ZM19.6406 0.734375C15.3996 0.734375 11.9375 4.1965 11.9375 8.4375H25.9375C25.9375 11.9285 23.1316 14.7344 19.6406 14.7344V0.734375ZM11.9375 8.4375V14.6719H25.9375V8.4375H11.9375ZM18.9375 21.6719H18.9844V7.67187H18.9375V21.6719Z" fill="white" mask="url(#path-5-inside-3_61_17)"/>
</svg>
