<svg width="60" height="60" viewBox="0 0 60 60" fill="none" xmlns="http://www.w3.org/2000/svg">
<path d="M27.8941 21.2719L27.8807 21.0006L27.6457 20.8642C24.9188 19.2815 21.7259 18.4844 18.8194 18.6687L18.8511 19.1677L18.8194 18.6687C15.5155 18.8782 12.743 20.3232 11.2119 23.1478L11.6515 23.3861L11.2119 23.1478C10.1305 25.1429 9.49969 27.3415 9.49969 30.0001C9.49969 35.3494 11.9455 40.876 15.4598 46.0611C18.2449 50.1704 23.7324 51.5733 28.7593 49.8124L28.7594 49.8124L29.3386 49.6094L29.1732 49.1376L29.3386 49.6094C29.7666 49.4594 30.2329 49.4594 30.6609 49.6094L30.8262 49.1376L30.6609 49.6094L31.2401 49.8124L31.2402 49.8124C36.2668 51.5733 41.7544 50.1704 44.5396 46.0611L44.1257 45.7806L44.5396 46.0611C48.0538 40.876 50.4997 35.3494 50.4997 30.0001C50.4997 27.261 49.8302 25.0104 48.6778 22.9665C47.112 20.1892 44.3443 18.7865 41.0706 18.6087C40.4778 18.5765 39.8743 18.5854 39.2663 18.6336L39.1114 18.6458L38.9908 18.7437C36.0205 21.1527 32.1316 22.4644 27.952 22.0478C27.9261 21.788 27.9069 21.5293 27.8941 21.2719ZM31.9997 8.96498V10.0974L32.8366 9.33448C35.8796 6.56033 40.0452 5.00355 44.5475 5.45235C44.8601 8.58879 44.1995 11.5602 42.8335 14.1027L42.5065 14.7115L43.187 14.8318C46.7997 15.4703 50.1321 17.4012 52.1622 21.0019L52.5874 20.7621L52.1622 21.0019C53.6378 23.6188 54.4997 26.5431 54.4997 30.0001C54.4997 36.51 51.5564 42.8376 47.8509 48.3053C43.9031 54.1298 36.4962 55.7844 30.158 53.6695L29.9997 53.6167L29.8415 53.6695C23.5031 55.7844 16.0964 54.1301 12.1486 48.3053L11.7347 48.5858L12.1486 48.3053C8.44287 42.8376 5.49969 36.5102 5.49969 30.0001C5.49969 26.6487 6.30975 23.7977 7.69529 21.2416C10.0249 16.9439 14.2151 14.9526 18.5663 14.6767C21.4663 14.4928 24.508 15.0565 27.3056 16.2355L27.9997 16.528V15.7747V7.50006C27.9997 6.39549 28.8951 5.50006 29.9997 5.50006C31.1043 5.50006 31.9997 6.39549 31.9997 7.50006V8.96498Z" fill="white" stroke="black"/>
</svg>
